<?xml version="1.0" standalone="no"?>
<!DOCTYPE svg PUBLIC "-//W3C//DTD SVG 20010904//EN"
 "http://www.w3.org/TR/2001/REC-SVG-20010904/DTD/svg10.dtd">
<svg version="1.0" xmlns="http://www.w3.org/2000/svg"
 width="500.000000pt" height="500.000000pt" viewBox="0 0 500.000000 500.000000"
 preserveAspectRatio="xMidYMid meet">

<g transform="translate(0.000000,500.000000) scale(0.100000,-0.100000) rotate(180, 2500, 2500)"
fill="#000" stroke="none">
<path d="M2270 4673 c-277 -44 -370 -66 -528 -124 -450 -165 -865 -509 -1109
-919 -217 -364 -313 -714 -313 -1136 0 -485 142 -910 433 -1304 63 -84 281
-314 362 -380 233 -193 553 -354 839 -425 341 -83 702 -88 1026 -14 321 73
617 214 863 409 106 83 285 258 339 329 24 31 45 58 49 61 12 11 99 139 139
205 142 232 224 452 282 755 26 134 36 480 18 614 -45 347 -152 653 -320 916
-94 149 -150 219 -290 363 -345 357 -760 566 -1271 641 -98 15 -447 21 -519 9z
m429 -283 c600 -76 1089 -382 1413 -885 214 -333 326 -818 278 -1204 -74 -589
-371 -1071 -857 -1392 -322 -213 -702 -319 -1092 -306 -431 15 -798 152 -1138
425 -457 368 -723 952 -700 1536 26 643 346 1196 895 1549 224 144 516 243
827 280 69 9 296 6 374 -3z"/>
<path d="M2303 3944 c-17 -9 -337 -321 -712 -694 -584 -583 -681 -684 -687
-714 -16 -86 -43 -55 689 -789 562 -564 689 -687 720 -695 72 -20 154 24 175
95 25 84 43 64 -627 736 l-616 617 617 618 c343 343 622 630 628 645 15 41 13
65 -11 113 -15 31 -32 48 -63 63 -50 25 -71 26 -113 5z"/>
<path d="M3175 3941 c-27 -13 -254 -234 -711 -692 -724 -726 -708 -708 -684
-786 10 -30 151 -177 684 -712 696 -698 720 -720 783 -705 81 19 123 69 123
144 0 25 -5 52 -10 60 -5 8 -287 293 -626 633 l-618 617 610 608 c335 334 617
618 626 632 24 34 23 106 -2 148 -19 32 -86 72 -120 72 -8 0 -33 -9 -55 -19z"/>
</g>
</svg>
