<?xml version="1.0" standalone="no"?>
<!DOCTYPE svg PUBLIC "-//W3C//DTD SVG 20010904//EN"
 "http://www.w3.org/TR/2001/REC-SVG-20010904/DTD/svg10.dtd">
<svg version="1.0" xmlns="http://www.w3.org/2000/svg"
 width="512.000000pt" height="512.000000pt" viewBox="0 0 512.000000 512.000000"
 preserveAspectRatio="xMidYMid meet">

<g transform="translate(0.000000,512.000000) scale(0.100000,-0.100000)"
fill="#ffffff" stroke="none">
<path d="M572 4623 c-18 -9 -45 -32 -60 -51 l-27 -35 0 -1977 0 -1977 27 -35
c57 -74 -126 -68 2048 -68 2174 0 1991 -6 2048 68 l27 35 3 1004 c3 1119 7
1045 -66 1101 -51 39 -133 39 -184 0 -72 -55 -68 5 -68 -992 l0 -896 -1760 0
-1760 0 0 1760 0 1760 896 0 c997 0 937 -4 992 68 39 51 39 133 0 184 -55 72
16 68 -1090 68 -899 0 -996 -2 -1026 -17z"/>
<path d="M3842 4590 c-161 -42 -106 7 -1195 -1080 l-999 -997 -179 -509 c-98
-280 -182 -527 -185 -549 -12 -88 74 -181 161 -172 22 3 270 84 550 182 l510
178 1001 1001 c1096 1096 1042 1037 1084 1202 38 147 18 314 -52 447 -43 81
-164 202 -245 245 -133 70 -305 90 -451 52z m286 -331 c65 -32 99 -66 135
-133 17 -33 22 -58 22 -126 0 -75 -3 -91 -28 -136 -20 -36 -296 -318 -975
-997 l-947 -946 -315 -110 c-173 -60 -316 -108 -317 -108 -1 1 47 143 106 315
l107 313 950 950 c1055 1055 1003 1009 1134 1009 55 0 78 -6 128 -31z"/>
</g>
</svg>
